# xmcd
#
# Track frame offsets:
#	150
#	25785
#	54181
#	73269
#	100473
#	121448
#	143969
#	169527
#
# Disc length: 2592 seconds
#
# Revision: 2
# Processed by: cddbd v1.5.2PL0 Copyright (c) Steve Scherf et al.
# Submitted via: EZCDAudioConverter 8.0.2.1
#
DISCID=6c0a1e08
DTITLE=Thanh Lam - Acoustic
DYEAR=2009
DGENRE=World Pop
TTITLE0=Khúc mưa
TTITLE1=Mùa đông sắp đến
TTITLE2=Anh yêu em
TTITLE3=Ngọc Lan
TTITLE4=Bây giờ biển mùa đông
TTITLE5=Em đi
TTITLE6=Mưa thì thầm
TTITLE7=Dòng sông lơ đãng
EXTD=
EXTT0=
EXTT1=
EXTT2=
EXTT3=
EXTT4=
EXTT5=
EXTT6=
EXTT7=
PLAYORDER=
